<svg width="41" height="24" viewBox="0 0 41 24" fill="none" xmlns="http://www.w3.org/2000/svg">
<mask id="mask0_10_1158" style="mask-type:alpha" maskUnits="userSpaceOnUse" x="0" y="0" width="43" height="24">
<path fill-rule="evenodd" clip-rule="evenodd" d="M28.7437 23.5454C26.4379 23.0867 24.3198 21.9546 22.6574 20.2922L25.2689 17.6807C26.4148 18.8267 27.8748 19.607 29.4642 19.9232C31.0536 20.2394 32.7011 20.0771 34.1983 19.4569C35.6955 18.8368 36.9752 17.7865 37.8756 16.4391C38.7759 15.0916 39.2565 13.5075 39.2565 11.8869C39.2565 10.2663 38.7759 8.68215 37.8756 7.33469C36.9752 5.98724 35.6955 4.93703 34.1983 4.31686C32.7011 3.6967 31.0536 3.53443 29.4642 3.85059C27.8748 4.16675 26.4148 4.94713 25.2689 6.09304L22.6574 3.4816C24.3198 1.81919 26.4379 0.687068 28.7437 0.228409C31.0495 -0.23025 33.4396 0.00514983 35.6116 0.90484C37.7837 1.80453 39.6402 3.3281 40.9463 5.28289C42.2525 7.23768 42.9496 9.53589 42.9496 11.8869C42.9496 14.2379 42.2525 16.5361 40.9463 18.4909C39.6402 20.4457 37.7837 21.9693 35.6116 22.8689C33.4396 23.7686 31.0495 24.004 28.7437 23.5454ZM14.7481 0.228458C17.0539 0.687116 19.172 1.81923 20.8344 3.48164L18.2229 6.09309C17.077 4.94718 15.617 4.1668 14.0276 3.85064C12.4382 3.53448 10.7907 3.69675 9.29345 4.31691C7.79624 4.93708 6.51656 5.98729 5.61622 7.33475C4.71588 8.6822 4.23532 10.2664 4.23532 11.8869C4.23532 13.5075 4.71588 15.0917 5.61622 16.4391C6.51656 17.7866 7.79625 18.8368 9.29346 19.457C10.7907 20.0771 12.4382 20.2394 14.0276 19.9232C15.617 19.6071 17.077 18.8267 18.2229 17.6808L20.8344 20.2922C19.172 21.9547 17.0539 23.0868 14.7481 23.5454C12.4423 24.0041 10.0522 23.7687 7.88015 22.869C5.70811 21.9693 3.85163 20.4457 2.54548 18.4909C1.23933 16.5362 0.542175 14.238 0.542175 11.8869C0.542175 9.53594 1.23933 7.23773 2.54548 5.28294C3.85162 3.32816 5.7081 1.80458 7.88015 0.904892C10.0522 0.00520067 12.4423 -0.2302 14.7481 0.228458Z" fill="#333333"/>
</mask>
<g mask="url(#mask0_10_1158)">
<rect x="-18.6417" y="9.97852" width="59.7557" height="18.0247" transform="rotate(-34.9453 -18.6417 9.97852)" fill="#333333"/>
</g>
<mask id="mask1_10_1158" style="mask-type:alpha" maskUnits="userSpaceOnUse" x="0" y="0" width="30" height="24">
<path fill-rule="evenodd" clip-rule="evenodd" d="M14.7481 0.228439C17.0539 0.687097 19.172 1.81921 20.8344 3.48162L18.2229 6.09307C17.077 4.94716 15.617 4.16678 14.0276 3.85062C12.4382 3.53446 10.7907 3.69673 9.29345 4.31689C7.79624 4.93706 6.51656 5.98727 5.61622 7.33473C4.71588 8.68218 4.23532 10.2664 4.23532 11.8869C4.23532 13.5075 4.71588 15.0917 5.61622 16.4391C6.51656 17.7866 7.79625 18.8368 9.29346 19.457C10.7907 20.0771 12.4382 20.2394 14.0276 19.9232C15.617 19.6071 17.077 18.8267 18.2229 17.6808L20.8344 20.2922C19.172 21.9546 17.0539 23.0868 14.7481 23.5454C12.4423 24.0041 10.0522 23.7687 7.88015 22.869C5.70811 21.9693 3.85163 20.4457 2.54548 18.4909C1.23933 16.5361 0.542175 14.2379 0.542175 11.8869C0.542175 9.53592 1.23933 7.23771 2.54548 5.28293C3.85162 3.32814 5.7081 1.80456 7.88015 0.904872C10.0522 0.00518127 12.4423 -0.230219 14.7481 0.228439ZM22.068 4.49778C21.1809 4.49778 20.4617 5.21697 20.4617 6.10412V17.6697C20.4617 18.5569 21.1809 19.2761 22.068 19.2761C22.9552 19.2761 23.6743 18.5569 23.6743 17.6697V17.3058L28.2251 17.3058C28.9053 17.3058 29.4567 16.7544 29.4567 16.0742C29.4567 15.3941 28.9053 14.8427 28.2251 14.8427H23.6743V8.93161H28.2251C28.9053 8.93161 29.4567 8.38024 29.4567 7.70008C29.4567 7.01993 28.9053 6.46856 28.2251 6.46856L23.6743 6.46856V6.10412C23.6743 5.21697 22.9552 4.49778 22.068 4.49778Z" fill="#222831"/>
</mask>
<g mask="url(#mask1_10_1158)">
<path fill-rule="evenodd" clip-rule="evenodd" d="M20.4619 6.10414C20.4619 5.21699 21.1811 4.4978 22.0683 4.4978C22.9554 4.4978 23.6746 5.21698 23.6746 6.10414V6.46858L28.2254 6.46858C28.9055 6.46858 29.4569 7.01995 29.4569 7.7001C29.4569 8.38025 28.9055 8.93163 28.2254 8.93163H23.6746V14.8427H28.2254C28.9055 14.8427 29.4569 15.3941 29.4569 16.0743C29.4569 16.7544 28.9055 17.3058 28.2254 17.3058L23.6746 17.3058V17.6698C23.6746 18.5569 22.9554 19.2761 22.0683 19.2761C21.1811 19.2761 20.4619 18.5569 20.4619 17.6698V6.10414Z" fill="#333333"/>
<rect width="12.4042" height="22.8499" transform="matrix(4.37114e-08 1 1 -4.37114e-08 -1.93524 11.5605)" fill="#333333"/>
<rect x="20.0441" y="19.3947" width="15.2332" height="10.6633" transform="rotate(-90 20.0441 19.3947)" fill="#A3A3A3"/>
</g>
<line x1="12.6433" y1="4.30859" x2="12.6433" y2="5.09279" stroke="#333333" stroke-width="1.04559" stroke-linecap="round"/>
<line x1="19.432" y1="11.7951" x2="18.6478" y2="11.7951" stroke="#333333" stroke-width="1.04559" stroke-linecap="round"/>
<line x1="5.59171" y1="11.7951" x2="4.80751" y2="11.7951" stroke="#333333" stroke-width="1.04559" stroke-linecap="round"/>
<line x1="12.5995" y1="18.6713" x2="12.5995" y2="19.4555" stroke="#333333" stroke-width="1.04559" stroke-linecap="round"/>
<path fill-rule="evenodd" clip-rule="evenodd" d="M12.5061 11.6634L12.5082 6.31091L9.02954 12.376L12.4247 12.376L12.446 17.7287L15.8981 11.6501L12.5061 11.6634Z" fill="#FFD369"/>
<circle cx="17.4327" cy="7.08984" r="0.522795" fill="#333333"/>
<circle cx="18.4783" cy="9.18103" r="0.522795" fill="#333333"/>
<circle cx="15.3416" cy="5.52145" r="0.522795" fill="#333333"/>
</svg>
