<svg width="14" height="20" viewBox="0 0 14 20" fill="none" xmlns="http://www.w3.org/2000/svg">
<path fill-rule="evenodd" clip-rule="evenodd" d="M4.5 2.04414C4.5 1.8256 4.67716 1.64844 4.8957 1.64844H9.1043C9.32284 1.64844 9.5 1.8256 9.5 2.04414V2.50273C9.5 2.72128 9.32284 2.89844 9.1043 2.89844H4.8957C4.67716 2.89844 4.5 2.72128 4.5 2.50273V2.04414ZM3.29788 2.89844H2.625C2.29348 2.89844 1.97554 3.03013 1.74112 3.26455C1.5067 3.49897 1.375 3.81692 1.375 4.14844V16.6484C1.375 16.98 1.5067 17.2979 1.74112 17.5323C1.97554 17.7667 2.29348 17.8984 2.625 17.8984H11.375C11.7065 17.8984 12.0245 17.7667 12.2589 17.5323C12.4933 17.2979 12.625 16.98 12.625 16.6484V4.14844C12.625 3.81692 12.4933 3.49897 12.2589 3.26455C12.0245 3.03013 11.7065 2.89844 11.375 2.89844H10.7021C10.525 3.6162 9.87678 4.14844 9.1043 4.14844H4.8957C4.12322 4.14844 3.47505 3.6162 3.29788 2.89844ZM10.7021 1.64844C10.525 0.93067 9.87678 0.398438 9.1043 0.398438H4.8957C4.12322 0.398438 3.47505 0.93067 3.29788 1.64844H2.625C1.96196 1.64844 1.32607 1.91183 0.857233 2.38067C0.388392 2.84951 0.125 3.4854 0.125 4.14844V16.6484C0.125 17.3115 0.388392 17.9474 0.857233 18.4162C1.32607 18.885 1.96196 19.1484 2.625 19.1484H11.375C12.038 19.1484 12.6739 18.885 13.1428 18.4162C13.6116 17.9474 13.875 17.3115 13.875 16.6484V4.14844C13.875 3.4854 13.6116 2.84951 13.1428 2.38067C12.6739 1.91183 12.038 1.64844 11.375 1.64844H10.7021Z" fill="#333333"/>
</svg>
