<svg width="6" height="10" viewBox="0 0 6 10" fill="none" xmlns="http://www.w3.org/2000/svg">
<path fill-rule="evenodd" clip-rule="evenodd" d="M5.707 0.293C5.89447 0.480528 5.99979 0.734836 5.99979 1C5.99979 1.26516 5.89447 1.51947 5.707 1.707L2.414 5L5.707 8.293C5.88916 8.4816 5.98995 8.7342 5.98767 8.9964C5.9854 9.2586 5.88023 9.50941 5.69482 9.69482C5.50941 9.88023 5.2586 9.9854 4.9964 9.98767C4.7342 9.98995 4.4816 9.88916 4.293 9.707L0.293 5.707C0.105529 5.51947 0.000213623 5.26516 0.000213623 5C0.000213623 4.73484 0.105529 4.48053 0.293 4.293L4.293 0.293C4.48053 0.105529 4.73484 0.000213623 5 0.000213623C5.26516 0.000213623 5.51947 0.105529 5.707 0.293Z" fill="#333333"/>
</svg>
