<svg width="12" height="13" viewBox="0 0 12 13" fill="none" xmlns="http://www.w3.org/2000/svg">
<rect x="0.25" y="0.75" width="11.5" height="11.5" rx="5.75" fill="white"/>
<path d="M5.04688 8.25V8.20312C5.05208 7.70573 5.10417 7.3099 5.20313 7.01562C5.30208 6.72135 5.44271 6.48307 5.625 6.30078C5.80729 6.11849 6.02604 5.95052 6.28125 5.79687C6.4349 5.70312 6.57292 5.59245 6.69531 5.46484C6.81771 5.33464 6.91406 5.1849 6.98437 5.01562C7.05729 4.84635 7.09375 4.65885 7.09375 4.45312C7.09375 4.19792 7.03385 3.97656 6.91406 3.78906C6.79427 3.60156 6.63411 3.45703 6.43359 3.35547C6.23307 3.25391 6.01042 3.20312 5.76563 3.20312C5.55208 3.20312 5.34635 3.2474 5.14844 3.33594C4.95052 3.42448 4.78516 3.5638 4.65234 3.75391C4.51953 3.94401 4.44271 4.19271 4.42188 4.5H3.4375C3.45833 4.05729 3.57292 3.67839 3.78125 3.36328C3.99219 3.04818 4.26953 2.80729 4.61328 2.64062C4.95964 2.47396 5.34375 2.39062 5.76563 2.39062C6.22396 2.39062 6.6224 2.48177 6.96094 2.66406C7.30208 2.84635 7.5651 3.09635 7.75 3.41406C7.9375 3.73177 8.03125 4.09375 8.03125 4.5C8.03125 4.78646 7.98698 5.04557 7.89844 5.27734C7.8125 5.50911 7.6875 5.71615 7.52344 5.89844C7.36198 6.08073 7.16667 6.24219 6.9375 6.38281C6.70833 6.52604 6.52474 6.67708 6.38672 6.83594C6.2487 6.99219 6.14844 7.17839 6.08594 7.39453C6.02344 7.61068 5.98958 7.88021 5.98437 8.20312V8.25H5.04688ZM5.54688 10.5625C5.35417 10.5625 5.1888 10.4935 5.05078 10.3555C4.91276 10.2174 4.84375 10.0521 4.84375 9.85937C4.84375 9.66667 4.91276 9.5013 5.05078 9.36328C5.1888 9.22526 5.35417 9.15625 5.54688 9.15625C5.73958 9.15625 5.90495 9.22526 6.04297 9.36328C6.18099 9.5013 6.25 9.66667 6.25 9.85937C6.25 9.98698 6.21745 10.1042 6.15234 10.2109C6.08984 10.3177 6.00521 10.4036 5.89844 10.4687C5.79427 10.5313 5.67708 10.5625 5.54688 10.5625Z" fill="#333333"/>
<rect x="0.25" y="0.75" width="11.5" height="11.5" rx="5.75" stroke="#333333" stroke-width="0.5"/>
</svg>
