<svg width="18" height="18" viewBox="0 0 18 18" fill="none" xmlns="http://www.w3.org/2000/svg">
<path fill-rule="evenodd" clip-rule="evenodd" d="M4 0.0234375C4.34518 0.0234375 4.625 0.30326 4.625 0.648438V1.27344H13.375V0.648438C13.375 0.30326 13.6548 0.0234375 14 0.0234375C14.3452 0.0234375 14.625 0.30326 14.625 0.648438V1.27344H15.25C16.6307 1.27344 17.75 2.39273 17.75 3.77344V15.0234C17.75 16.4042 16.6307 17.5234 15.25 17.5234H2.75C1.36929 17.5234 0.25 16.4042 0.25 15.0234V3.77344C0.25 2.39273 1.36929 1.27344 2.75 1.27344H3.375V0.648438C3.375 0.30326 3.65482 0.0234375 4 0.0234375ZM2.75 2.52344C2.05964 2.52344 1.5 3.08308 1.5 3.77344V4.39844H16.5V3.77344C16.5 3.08308 15.9404 2.52344 15.25 2.52344H2.75ZM16.5 5.64844H1.5V15.0234C1.5 15.7138 2.05964 16.2734 2.75 16.2734H15.25C15.9404 16.2734 16.5 15.7138 16.5 15.0234V5.64844ZM4 8.14844V10.6484H6.5V8.14844H4ZM2.75 8.03125C2.75 7.40562 3.25718 6.89844 3.88281 6.89844H6.61719C7.24282 6.89844 7.75 7.40562 7.75 8.03125V10.7656C7.75 11.3913 7.24282 11.8984 6.61719 11.8984H3.88281C3.25718 11.8984 2.75 11.3913 2.75 10.7656V8.03125Z" fill="#333333"/>
</svg>
