<svg width="18" height="17" viewBox="0 0 18 17" fill="none" xmlns="http://www.w3.org/2000/svg">
<path fill-rule="evenodd" clip-rule="evenodd" d="M0.875 8.77344C0.875 4.28763 4.5142 0.648438 9 0.648438C13.4858 0.648438 17.125 4.28763 17.125 8.77344C17.125 13.2592 13.4858 16.8984 9 16.8984C4.5142 16.8984 0.875 13.2592 0.875 8.77344ZM9 1.89844C5.20455 1.89844 2.125 4.97799 2.125 8.77344C2.125 12.5689 5.20455 15.6484 9 15.6484C12.7954 15.6484 15.875 12.5689 15.875 8.77344C15.875 4.97799 12.7954 1.89844 9 1.89844Z" fill="#333333"/>
<path fill-rule="evenodd" clip-rule="evenodd" d="M13.7863 5.80284C14.0462 6.02999 14.0728 6.42483 13.8456 6.68473L9.47568 11.6847C9.36176 11.8151 9.1989 11.8923 9.02589 11.8981C8.85289 11.9039 8.68524 11.8376 8.56291 11.7151L6.68986 9.84015C6.44591 9.59594 6.44611 9.20022 6.69032 8.95627C6.93452 8.71231 7.33025 8.71252 7.5742 8.95673L8.97459 10.3586L12.9044 5.86214C13.1316 5.60224 13.5264 5.57569 13.7863 5.80284Z" fill="#333333"/>
<path fill-rule="evenodd" clip-rule="evenodd" d="M4.18329 8.95627C4.42749 8.71232 4.82322 8.71252 5.06717 8.95673L6.94022 10.8317C7.18417 11.0759 7.18396 11.4717 6.93976 11.7156C6.69555 11.9596 6.29983 11.9594 6.05587 11.7151L4.18283 9.84015C3.93888 9.59594 3.93908 9.20022 4.18329 8.95627Z" fill="#333333"/>
<path fill-rule="evenodd" clip-rule="evenodd" d="M11.353 5.80278C11.613 6.02989 11.6396 6.42473 11.4125 6.68466L9.39878 8.98935C9.17167 9.24929 8.77683 9.2759 8.5169 9.04878C8.25696 8.82167 8.23035 8.42684 8.45747 8.1669L10.4711 5.86221C10.6983 5.60227 11.0931 5.57567 11.353 5.80278Z" fill="#333333"/>
</svg>
