<svg width="14" height="18" viewBox="0 0 14 18" fill="none" xmlns="http://www.w3.org/2000/svg">
<path fill-rule="evenodd" clip-rule="evenodd" d="M2.625 1.27344C2.29348 1.27344 1.97554 1.40513 1.74112 1.63955C1.5067 1.87397 1.375 2.19192 1.375 2.52344V15.0234C1.375 15.355 1.5067 15.6729 1.74112 15.9073C1.97554 16.1417 2.29348 16.2734 2.625 16.2734H11.375C11.7065 16.2734 12.0245 16.1417 12.2589 15.9073C12.4933 15.6729 12.625 15.355 12.625 15.0234V7.52344H8.25C7.75272 7.52344 7.27581 7.32589 6.92418 6.97426C6.57254 6.62263 6.375 6.14572 6.375 5.64844V1.27344H2.625ZM7.625 2.15732L11.7411 6.27344H8.25C8.08424 6.27344 7.92527 6.20759 7.80806 6.09038C7.69085 5.97317 7.625 5.8142 7.625 5.64844V2.15732ZM0.857233 0.755671C1.32607 0.28683 1.96196 0.0234375 2.625 0.0234375H6.48252C6.97962 0.0235126 7.45636 0.220992 7.80791 0.572461L7.80796 0.572511L13.326 6.09053C13.6774 6.44208 13.8749 6.91881 13.875 7.41592V15.0234C13.875 15.6865 13.6116 16.3224 13.1428 16.7912C12.6739 17.26 12.038 17.5234 11.375 17.5234H2.625C1.96196 17.5234 1.32607 17.26 0.857233 16.7912C0.388392 16.3224 0.125 15.6865 0.125 15.0234V2.52344C0.125 1.8604 0.388392 1.22451 0.857233 0.755671ZM3.25 10.0234C3.25 9.67826 3.52982 9.39844 3.875 9.39844H10.125C10.4702 9.39844 10.75 9.67826 10.75 10.0234C10.75 10.3686 10.4702 10.6484 10.125 10.6484H3.875C3.52982 10.6484 3.25 10.3686 3.25 10.0234ZM3.25 13.1484C3.25 12.8033 3.52982 12.5234 3.875 12.5234H10.125C10.4702 12.5234 10.75 12.8033 10.75 13.1484C10.75 13.4936 10.4702 13.7734 10.125 13.7734H3.875C3.52982 13.7734 3.25 13.4936 3.25 13.1484Z" fill="#333333"/>
</svg>
