<svg width="18" height="18" viewBox="0 0 18 18" fill="none" xmlns="http://www.w3.org/2000/svg">
<path d="M9.11343 0.875175C4.54389 0.813456 0.813426 4.54393 0.875145 9.11346C0.936082 13.4959 4.50444 17.0642 8.88686 17.1252C13.4572 17.1877 17.1869 13.4572 17.1244 8.88768C17.0642 4.50447 13.4958 0.936113 9.11343 0.875175ZM14.0517 13.6584C14.0361 13.6752 14.0171 13.6884 13.9958 13.697C13.9746 13.7057 13.9517 13.7095 13.9289 13.7083C13.906 13.7071 13.8836 13.7009 13.8634 13.6901C13.8432 13.6793 13.8256 13.6642 13.8119 13.6459C13.4625 13.1887 13.0346 12.7974 12.5482 12.49C11.5537 11.8517 10.2935 11.5002 9.00014 11.5002C7.70679 11.5002 6.44663 11.8517 5.4521 12.49C4.96572 12.7972 4.53784 13.1885 4.18843 13.6455C4.1747 13.6638 4.1571 13.679 4.13688 13.6897C4.11667 13.7005 4.09432 13.7068 4.07143 13.7079C4.04854 13.7091 4.02568 13.7053 4.00444 13.6966C3.98321 13.688 3.96414 13.6748 3.94858 13.658C2.80236 12.4206 2.15307 10.8038 2.12514 9.11736C2.06147 5.31619 5.18061 2.13455 8.98335 2.12518C12.7861 2.1158 15.8751 5.20369 15.8751 9.00018C15.8765 10.7273 15.2252 12.3911 14.0517 13.6584Z" fill="#333333"/>
<path d="M9.00014 4.62518C8.22983 4.62518 7.53335 4.91385 7.03843 5.43846C6.5435 5.96307 6.29624 6.68846 6.3521 7.46697C6.46538 9.00018 7.65327 10.2502 9.00014 10.2502C10.347 10.2502 11.5326 9.00018 11.6482 7.46736C11.706 6.69627 11.4607 5.97752 10.9576 5.44314C10.4607 4.9158 9.76538 4.62518 9.00014 4.62518Z" fill="#333333"/>
</svg>
