<svg width="18" height="16" viewBox="0 0 18 16" fill="none" xmlns="http://www.w3.org/2000/svg">
<path fill-rule="evenodd" clip-rule="evenodd" d="M2.3555 0.818084C2.80752 0.442557 3.37839 0.273438 4 0.273438H14C14.5961 0.273438 15.1644 0.429529 15.6218 0.796858C16.0804 1.16511 16.3678 1.69772 16.4881 2.33927L17.7366 8.26968C17.7455 8.31202 17.75 8.35517 17.75 8.39844V12.7734L17.75 12.7753C17.7481 13.4372 17.4843 14.0715 17.0162 14.5396C16.5481 15.0077 15.9138 15.2715 15.2518 15.2734L15.25 15.2734H2.75L2.74819 15.2734C2.08622 15.2715 1.45191 15.0077 0.983827 14.5396C0.515743 14.0715 0.251925 13.4372 0.250003 12.7753L0.25 12.7734V8.39844C0.25 8.35517 0.254493 8.31202 0.263406 8.26968L1.51234 2.33727C1.63166 1.7222 1.90522 1.19216 2.3555 0.818084ZM3.15427 1.77957C2.97116 1.9317 2.81532 2.18081 2.73875 2.57897C2.73807 2.58255 2.73735 2.58612 2.73659 2.58969L1.64528 7.77344H6.5C6.84518 7.77344 7.125 8.05326 7.125 8.39844C7.125 8.89572 7.32254 9.37263 7.67417 9.72426C8.02581 10.0759 8.50272 10.2734 9 10.2734C9.49728 10.2734 9.97419 10.0759 10.3258 9.72426C10.6775 9.37263 10.875 8.89572 10.875 8.39844C10.875 8.05326 11.1548 7.77344 11.5 7.77344H16.3547L15.2634 2.58969C15.2624 2.58472 15.2614 2.57974 15.2604 2.57474C15.1846 2.16511 15.0232 1.91932 14.8391 1.7715C14.652 1.62125 14.3805 1.52344 14 1.52344H4C3.60598 1.52344 3.33701 1.62776 3.15427 1.77957ZM16.5 9.02344H12.0619C11.9402 9.61934 11.6462 10.1717 11.2097 10.6081C10.6237 11.1942 9.8288 11.5234 9 11.5234C8.1712 11.5234 7.37634 11.1942 6.79029 10.6081C6.3538 10.1717 6.05977 9.61934 5.93812 9.02344H1.5V12.7724C1.50118 13.1039 1.63335 13.4214 1.86771 13.6557C2.10209 13.8901 2.41963 14.0223 2.75107 14.0234H15.2489C15.5804 14.0223 15.8979 13.8901 16.1323 13.6557C16.3667 13.4213 16.4988 13.1038 16.5 12.7724V9.02344ZM4 3.39844C4 3.05326 4.27982 2.77344 4.625 2.77344H13.375C13.7202 2.77344 14 3.05326 14 3.39844C14 3.74362 13.7202 4.02344 13.375 4.02344H4.625C4.27982 4.02344 4 3.74362 4 3.39844ZM3.375 5.89844C3.375 5.55326 3.65482 5.27344 4 5.27344H14C14.3452 5.27344 14.625 5.55326 14.625 5.89844C14.625 6.24362 14.3452 6.52344 14 6.52344H4C3.65482 6.52344 3.375 6.24362 3.375 5.89844Z" fill="#373737"/>
</svg>
