<svg width="17" height="17" viewBox="0 0 17 17" fill="none" xmlns="http://www.w3.org/2000/svg">
<path fill-rule="evenodd" clip-rule="evenodd" d="M7.74935 0.440338C3.83733 0.440338 0.666016 3.61165 0.666016 7.52367C0.666016 11.4357 3.83733 14.607 7.74935 14.607C9.4051 14.607 10.9282 14.0389 12.1343 13.087L15.1778 16.1306C15.5033 16.456 16.0309 16.456 16.3563 16.1306C16.6818 15.8052 16.6818 15.2775 16.3563 14.9521L13.3128 11.9085C14.2646 10.7024 14.8327 9.17934 14.8327 7.52367C14.8327 3.61165 11.6613 0.440338 7.74935 0.440338ZM2.33268 7.52367C2.33268 4.53213 4.75781 2.107 7.74935 2.107C10.7409 2.107 13.166 4.53213 13.166 7.52367C13.166 10.5153 10.7409 12.9403 7.74935 12.9403C4.75781 12.9403 2.33268 10.5153 2.33268 7.52367Z" fill="#B5BDC9"/>
</svg>
