<svg width="18" height="17" viewBox="0 0 18 17" fill="none" xmlns="http://www.w3.org/2000/svg">
<path fill-rule="evenodd" clip-rule="evenodd" d="M9.19247 0.648733C13.591 0.750853 17.1255 4.35038 17.1255 8.77353C17.1255 13.2648 13.495 16.907 8.99929 16.8985C4.49979 16.8901 0.825666 13.1924 0.875501 8.68871C0.895835 6.71911 1.63148 4.82407 2.94538 3.35662C3.17563 3.09946 3.57076 3.07764 3.82792 3.3079C4.08508 3.53815 4.1069 3.93327 3.87664 4.19043C2.76497 5.43201 2.14258 7.03539 2.12543 8.70183L2.12543 8.70233C2.08321 12.5071 5.19263 15.6414 9.00164 15.6485C12.8028 15.6557 15.8755 12.5768 15.8755 8.77353C15.8755 5.18688 13.1289 2.2403 9.62546 1.92452V4.71103C9.62546 5.0562 9.34564 5.33603 9.00046 5.33603C8.65529 5.33603 8.37546 5.0562 8.37546 4.71103V1.44484C8.37532 1.33845 8.39652 1.2331 8.43782 1.13505C8.47927 1.03664 8.5401 0.947589 8.61671 0.873198C8.69331 0.798812 8.7841 0.740607 8.88369 0.702061C8.98207 0.663979 9.08704 0.645857 9.19247 0.648733Z" fill="#333333"/>
<path d="M8.11687 9.65751L5.03093 5.24345C4.98824 5.18229 4.96844 5.10806 4.97499 5.03376C4.98154 4.95946 5.01404 4.88984 5.06678 4.8371C5.11952 4.78437 5.18914 4.75187 5.26343 4.74532C5.33773 4.73876 5.41196 4.75857 5.47312 4.80126L9.88718 7.8872C10.1579 8.08219 10.341 8.37594 10.3969 8.70489C10.4527 9.03384 10.3768 9.37155 10.1856 9.64497C9.99435 9.91839 9.70317 10.1055 9.37502 10.1659C9.04688 10.2263 8.70815 10.1551 8.43211 9.96767C8.31005 9.88309 8.20342 9.77818 8.11687 9.65751Z" fill="#333333"/>
</svg>
