<?xml version="1.0" encoding="UTF-8" standalone="no"?>
<!DOCTYPE svg PUBLIC "-//W3C//DTD SVG 1.1//EN" "http://www.w3.org/Graphics/SVG/1.1/DTD/svg11.dtd">
<svg xmlns="http://www.w3.org/2000/svg" xmlns:xlink="http://www.w3.org/1999/xlink" version="1.1" width="20pt" height="20pt" viewBox="0 0 20 20">
<g enable-background="new">
<path transform="matrix(1,0,0,-1,1.875,18.125)" d="M 0 8.125 C 0 12.610803 3.639197 16.25 8.125 16.25 C 12.610803 16.25 16.25 12.610803 16.25 8.125 C 16.25 3.639197 12.610803 0 8.125 0 C 3.639197 0 0 3.639197 0 8.125 Z M 8.125 15 C 4.329553 15 1.25 11.920446 1.25 8.125 C 1.25 4.329553 4.329553 1.25 8.125 1.25 C 11.920447 1.25 15 4.329553 15 8.125 C 15 11.920446 11.920447 15 8.125 15 Z " fill="#333333" fill-rule="evenodd"/>
<path transform="matrix(1,0,0,-1,1.875,8.203125)" d="M 12.911295 1.173723 C 13.171198 .946571 13.19775 .551734 12.970598 .291831 L 8.600676 -4.70817 C 8.486763 -4.838507 8.323898 -4.915763 8.150894 -4.921528 C 7.97789 -4.927294 7.810243 -4.86105 7.687906 -4.738586 L 5.814859 -2.863586 C 5.570909 -2.619381 5.571115 -2.223653 5.81532 -1.979703 C 6.059524 -1.735752 6.455252 -1.735958 6.699203 -1.980163 L 8.099592 -3.382011 L 12.029402 1.11442 C 12.256554 1.374323 12.651391 1.400875 12.911295 1.173723 Z " fill="#333333" fill-rule="evenodd"/>
<path transform="matrix(1,0,0,-1,1.875,5.1220705)" d="M 3.308289 -5.060758 C 3.552494 -4.816808 3.948221 -4.817013 4.192172 -5.061218 L 6.065218 -6.936218 C 6.309169 -7.180424 6.308963 -7.576152 6.064758 -7.820102 C 5.820553 -8.064053 5.424826 -8.063846 5.180875 -7.819641 L 3.307828 -5.944641 C 3.063878 -5.700437 3.064084 -5.304708 3.308289 -5.060758 Z " fill="#333333" fill-rule="evenodd"/>
<path transform="matrix(1,0,0,-1,1.875,5.5751955)" d="M 10.478022 -1.454148 C 10.737959 -1.681262 10.764566 -2.076094 10.537453 -2.336031 L 8.523782 -4.640718 C 8.296668 -4.900655 7.901835 -4.927262 7.641898 -4.700149 C 7.381962 -4.473034 7.355354 -4.078202 7.582469 -3.818265 L 9.596139 -1.513578 C 9.823254 -1.253641 10.218085 -1.227034 10.478022 -1.454148 Z " fill="#333333" fill-rule="evenodd"/>
</g>
</svg>
