<svg width="16" height="17" viewBox="0 0 16 17" fill="none" xmlns="http://www.w3.org/2000/svg">
<path d="M11.3333 0.5C12.212 0.5 12.9318 1.1799 12.9954 2.04228L13 2.16667V6.33333H14.25C14.8997 6.33333 15.4337 6.82909 15.4943 7.46295L15.5 7.58333V13.8333C15.5 15.1648 14.4593 16.2531 13.1469 16.3291L13 16.3333H2.16667C1.28803 16.3333 0.568196 15.6535 0.504571 14.7911L0.5 14.6667V2.16667C0.5 1.28803 1.1799 0.568196 2.04228 0.504571L2.16667 0.5H11.3333ZM13.8333 8H13V14.6667C13.4602 14.6667 13.8333 14.2936 13.8333 13.8333V8ZM11.3333 2.16667H2.16667V14.6667H11.3333V2.16667ZM7.16667 8.83333C7.62692 8.83333 8 9.20642 8 9.66667C8 10.094 7.67831 10.4463 7.26385 10.4944L7.16667 10.5H4.66667C4.20643 10.5 3.83333 10.1269 3.83333 9.66667C3.83333 9.23929 4.15504 8.88708 4.56948 8.83894L4.66667 8.83333H7.16667ZM8.83333 4.66667C9.29358 4.66667 9.66667 5.03977 9.66667 5.5C9.66667 5.96023 9.29358 6.33333 8.83333 6.33333H4.66667C4.20643 6.33333 3.83333 5.96023 3.83333 5.5C3.83333 5.03977 4.20643 4.66667 4.66667 4.66667H8.83333Z" fill="#333333"/>
</svg>
