<svg width="12" height="14" viewBox="0 0 12 14" fill="none" xmlns="http://www.w3.org/2000/svg">
<path fill-rule="evenodd" clip-rule="evenodd" d="M6 0C6.27614 0 6.5 0.223858 6.5 0.5V8.79289L8.14645 7.14645C8.34171 6.95118 8.65829 6.95118 8.85355 7.14645C9.04882 7.34171 9.04882 7.65829 8.85355 7.85355L6.35355 10.3536C6.15829 10.5488 5.84171 10.5488 5.64645 10.3536L3.14645 7.85355C2.95118 7.65829 2.95118 7.34171 3.14645 7.14645C3.34171 6.95118 3.65829 6.95118 3.85355 7.14645L5.5 8.79289V0.5C5.5 0.223858 5.72386 0 6 0ZM2.25 5C2.05109 5 1.86032 5.07902 1.71967 5.21967C1.57902 5.36032 1.5 5.55109 1.5 5.75V12.25C1.5 12.4489 1.57902 12.6397 1.71967 12.7803C1.86032 12.921 2.05109 13 2.25 13H9.75C9.94891 13 10.1397 12.921 10.2803 12.7803C10.421 12.6397 10.5 12.4489 10.5 12.25V5.75C10.5 5.55109 10.421 5.36032 10.2803 5.21967C10.1397 5.07902 9.94891 5 9.75 5H8.5C8.22386 5 8 4.77614 8 4.5C8 4.22386 8.22386 4 8.5 4H9.75C10.2141 4 10.6592 4.18437 10.9874 4.51256C11.3156 4.84075 11.5 5.28587 11.5 5.75V12.25C11.5 12.7141 11.3156 13.1592 10.9874 13.4874C10.6592 13.8156 10.2141 14 9.75 14H2.25C1.78587 14 1.34075 13.8156 1.01256 13.4874C0.684374 13.1592 0.5 12.7141 0.5 12.25V5.75C0.5 5.28587 0.684374 4.84075 1.01256 4.51256C1.34075 4.18437 1.78587 4 2.25 4H3.5C3.77614 4 4 4.22386 4 4.5C4 4.77614 3.77614 5 3.5 5H2.25Z" fill="#333333"/>
</svg>
