<svg width="14" height="12" viewBox="0 0 14 12" fill="none" xmlns="http://www.w3.org/2000/svg">
<path fill-rule="evenodd" clip-rule="evenodd" d="M9.5 1.5C9.22386 1.5 9 1.72386 9 2C9 2.27614 9.22386 2.5 9.5 2.5C9.77614 2.5 10 2.27614 10 2C10 1.72386 9.77614 1.5 9.5 1.5ZM8.08535 1.5C8.29127 0.917404 8.84689 0.5 9.5 0.5C10.1531 0.5 10.7087 0.917404 10.9146 1.5H13C13.2761 1.5 13.5 1.72386 13.5 2C13.5 2.27614 13.2761 2.5 13 2.5H10.9146C10.7087 3.0826 10.1531 3.5 9.5 3.5C8.84689 3.5 8.29127 3.0826 8.08535 2.5H1C0.723858 2.5 0.5 2.27614 0.5 2C0.5 1.72386 0.723858 1.5 1 1.5H8.08535ZM4.5 5.5C4.22386 5.5 4 5.72386 4 6C4 6.27614 4.22386 6.5 4.5 6.5C4.77614 6.5 5 6.27614 5 6C5 5.72386 4.77614 5.5 4.5 5.5ZM3.08535 5.5C3.29127 4.9174 3.84689 4.5 4.5 4.5C5.15311 4.5 5.70873 4.9174 5.91465 5.5H13C13.2761 5.5 13.5 5.72386 13.5 6C13.5 6.27614 13.2761 6.5 13 6.5H5.91465C5.70873 7.0826 5.15311 7.5 4.5 7.5C3.84689 7.5 3.29127 7.0826 3.08535 6.5H1C0.723858 6.5 0.5 6.27614 0.5 6C0.5 5.72386 0.723858 5.5 1 5.5H3.08535ZM9.5 9.5C9.22386 9.5 9 9.72386 9 10C9 10.2761 9.22386 10.5 9.5 10.5C9.77614 10.5 10 10.2761 10 10C10 9.72386 9.77614 9.5 9.5 9.5ZM8.08535 9.5C8.29127 8.9174 8.84689 8.5 9.5 8.5C10.1531 8.5 10.7087 8.9174 10.9146 9.5H13C13.2761 9.5 13.5 9.72386 13.5 10C13.5 10.2761 13.2761 10.5 13 10.5H10.9146C10.7087 11.0826 10.1531 11.5 9.5 11.5C8.84689 11.5 8.29127 11.0826 8.08535 10.5H1C0.723858 10.5 0.5 10.2761 0.5 10C0.5 9.72386 0.723858 9.5 1 9.5H8.08535Z" fill="#333333"/>
</svg>
