<svg width="56" height="34" viewBox="0 0 56 34" fill="none" xmlns="http://www.w3.org/2000/svg">
<mask id="mask0_1458_17269" style="mask-type:alpha" maskUnits="userSpaceOnUse" x="0" y="0" width="59" height="33">
<path fill-rule="evenodd" clip-rule="evenodd" d="M39.1457 32.683C35.945 32.0463 33.005 30.4748 30.6974 28.1673L34.3223 24.5424C35.9129 26.133 37.9395 27.2162 40.1458 27.6551C42.352 28.0939 44.6389 27.8687 46.7171 27.0078C48.7954 26.147 50.5717 24.6892 51.8215 22.8188C53.0712 20.9485 53.7383 18.7495 53.7383 16.5C53.7383 14.2505 53.0712 12.0515 51.8215 10.1812C50.5717 8.31079 48.7954 6.85301 46.7171 5.99217C44.6389 5.13133 42.352 4.90609 40.1458 5.34494C37.9395 5.7838 35.9129 6.86703 34.3223 8.45766L30.6974 4.83275C33.005 2.52518 35.945 0.95371 39.1457 0.317052C42.3463 -0.319606 45.6639 0.0071488 48.6789 1.25599C51.6939 2.50484 54.2709 4.61969 56.0839 7.3331C57.8969 10.0465 58.8647 13.2366 58.8647 16.5C58.8647 19.7634 57.8969 22.9535 56.0839 25.6669C54.2709 28.3803 51.6939 30.4952 48.6789 31.744C45.664 32.9929 42.3464 33.3196 39.1457 32.683ZM19.719 0.317116C22.9197 0.953772 25.8597 2.52524 28.1673 4.83281L24.5424 8.45772C22.9517 6.86709 20.9251 5.78386 18.7189 5.34501C16.5126 4.90616 14.2258 5.13139 12.1475 5.99223C10.0693 6.85308 8.29294 8.31086 7.04319 10.1812C5.79344 12.0516 5.12639 14.2506 5.1264 16.5001C5.1264 18.7496 5.79345 20.9485 7.04319 22.8189C8.29294 24.6893 10.0693 26.1471 12.1475 27.0079C14.2258 27.8688 16.5126 28.094 18.7189 27.6551C20.9251 27.2163 22.9517 26.1331 24.5424 24.5424L28.1673 28.1673C25.8597 30.4749 22.9197 32.0464 19.719 32.683C16.5183 33.3197 13.2007 32.9929 10.1857 31.7441C7.17074 30.4952 4.5938 28.3804 2.78075 25.667C0.967709 22.9536 0 19.7635 0 16.5001C0 13.2367 0.967707 10.0466 2.78075 7.33317C4.59379 4.61976 7.17074 2.50491 10.1857 1.25606C13.2007 0.00721592 16.5183 -0.31954 19.719 0.317116Z" fill="#333333"/>
</mask>
<g mask="url(#mask0_1458_17269)">
<rect x="-26.6289" y="13.8516" width="82.946" height="25.0197" transform="rotate(-34.9453 -26.6289 13.8516)" fill="#333333"/>
</g>
<mask id="mask1_1458_17269" style="mask-type:alpha" maskUnits="userSpaceOnUse" x="0" y="0" width="41" height="33">
<path fill-rule="evenodd" clip-rule="evenodd" d="M19.719 0.31705C22.9197 0.953706 25.8597 2.52518 28.1673 4.83274L24.5424 8.45765C22.9517 6.86703 20.9251 5.7838 18.7189 5.34494C16.5126 4.90609 14.2258 5.13133 12.1475 5.99217C10.0693 6.85301 8.29294 8.31079 7.04319 10.1812C5.79344 12.0516 5.12639 14.2505 5.1264 16.5C5.1264 18.7495 5.79345 20.9485 7.04319 22.8188C8.29294 24.6892 10.0693 26.147 12.1475 27.0078C14.2258 27.8687 16.5126 28.0939 18.7189 27.6551C20.9251 27.2162 22.9517 26.133 24.5424 24.5424L28.1673 28.1673C25.8597 30.4748 22.9197 32.0463 19.719 32.683C16.5183 33.3196 13.2007 32.9929 10.1857 31.744C7.17074 30.4952 4.5938 28.3803 2.78075 25.6669C0.967709 22.9535 0 19.7634 0 16.5C0 13.2366 0.967707 10.0465 2.78075 7.3331C4.59379 4.61969 7.17074 2.50484 10.1857 1.256C13.2007 0.00714968 16.5183 -0.319606 19.719 0.31705ZM29.8801 6.24247C28.6487 6.24247 27.6504 7.24076 27.6504 8.47221V24.5263C27.6504 25.7577 28.6487 26.756 29.8801 26.756C31.1116 26.756 32.1098 25.7577 32.1098 24.5263V24.0211H38.4259C39.37 24.0211 40.1353 23.2557 40.1353 22.3116C40.1353 21.3675 39.37 20.6022 38.4259 20.6022H32.1098V12.3968H38.4259C39.37 12.3968 40.1353 11.6315 40.1353 10.6874C40.1353 9.74327 39.37 8.97792 38.4259 8.97792H32.1098V8.4722C32.1098 7.24076 31.1116 6.24247 29.8801 6.24247Z" fill="#222831"/>
</mask>
<g mask="url(#mask1_1458_17269)">
<path fill-rule="evenodd" clip-rule="evenodd" d="M27.6504 8.47192C27.6504 7.24047 28.6487 6.24219 29.8801 6.24219C31.1116 6.24219 32.1098 7.24047 32.1098 8.47192V8.97763L38.4259 8.97763C39.37 8.97763 40.1353 9.74299 40.1353 10.6871C40.1353 11.6312 39.37 12.3966 38.4259 12.3966H32.1098V20.6019H38.4259C39.37 20.6019 40.1353 21.3672 40.1353 22.3113C40.1353 23.2555 39.37 24.0208 38.4259 24.0208H32.1098V24.526C32.1098 25.7574 31.1116 26.7557 29.8801 26.7557C28.6487 26.7557 27.6504 25.7574 27.6504 24.526V8.47192Z" fill="#333333"/>
<rect width="17.2181" height="31.7175" transform="matrix(4.37114e-08 1 1 -4.37114e-08 -3.44141 16.0469)" fill="#333333"/>
<rect x="27.0703" y="26.9199" width="21.145" height="14.8015" transform="rotate(-90 27.0703 26.9199)" fill="#A3A3A3"/>
</g>
<line x1="16.3112" y1="6.94789" x2="16.3112" y2="6.34375" stroke="#333333" stroke-width="1.20829" stroke-linecap="round"/>
<line x1="19.1843" y1="6.52426" x2="19.2625" y2="6.23248" stroke="#333333" stroke-width="0.604143" stroke-linecap="round"/>
<line x1="22.0006" y1="7.66238" x2="22.1869" y2="7.42465" stroke="#333333" stroke-width="0.604143" stroke-linecap="round"/>
<line x1="25.5462" y1="11.552" x2="25.804" y2="11.3945" stroke="#333333" stroke-width="0.604143" stroke-linecap="round"/>
<line x1="24.0724" y1="9.46643" x2="24.3045" y2="9.27321" stroke="#333333" stroke-width="0.604143" stroke-linecap="round"/>
<line x1="26.3805" y1="13.9579" x2="26.6673" y2="13.8629" stroke="#333333" stroke-width="0.604143" stroke-linecap="round"/>
<line x1="25.9779" y1="16.6139" x2="26.582" y2="16.6139" stroke="#333333" stroke-width="1.20829" stroke-linecap="round"/>
<line x1="6.04234" y1="16.6139" x2="6.64648" y2="16.6139" stroke="#333333" stroke-width="1.20829" stroke-linecap="round"/>
<line x1="16.6159" y1="26.8834" x2="16.6159" y2="26.2793" stroke="#333333" stroke-width="1.20829" stroke-linecap="round"/>
<path fill-rule="evenodd" clip-rule="evenodd" d="M16.607 16.1899L16.61 8.75977L11.7812 17.1786L16.4927 17.1786L16.5223 24.6091L21.3141 16.1715L16.607 16.1899Z" fill="#FFD369"/>
</svg>
