<?xml version="1.0" encoding="UTF-8" standalone="no"?>
<svg
   xmlns:dc="http://purl.org/dc/elements/1.1/"
   xmlns:cc="http://creativecommons.org/ns#"
   xmlns:rdf="http://www.w3.org/1999/02/22-rdf-syntax-ns#"
   xmlns:svg="http://www.w3.org/2000/svg"
   xmlns="http://www.w3.org/2000/svg"
   viewBox="0 0 26.666668 26.666668"
   height="26.666668"
   width="26.666668"
   xml:space="preserve"
   id="svg2"
   version="1.1"><metadata
     id="metadata8"><rdf:RDF><cc:Work
         rdf:about=""><dc:format>image/svg+xml</dc:format><dc:type
           rdf:resource="http://purl.org/dc/dcmitype/StillImage" /></cc:Work></rdf:RDF></metadata><defs
     id="defs6" /><g
     transform="matrix(1.3333333,0,0,-1.3333333,0,26.666667)"
     id="g10"><g
       transform="translate(1.25,2.5)"
       id="g12"><path
         id="path14"
         style="fill:#373737;fill-opacity:1;fill-rule:evenodd;stroke:none"
         d="M 2.105495,14.455354 C 2.557519,14.830881 3.128392,15 3.75,15 h 10 c 0.596108,0 1.164374,-0.156092 1.621803,-0.52342 0.458582,-0.368256 0.745949,-0.900863 0.866282,-1.542409 L 17.486593,7.003757 C 17.495506,6.961417 17.5,6.918267 17.5,6.875 V 2.5 l -2e-6,-0.00182 C 17.498075,1.836218 17.234257,1.201911 16.766174,0.733826 16.298088,0.265742 15.663782,0.001925 15.001816,2e-6 L 15,0 H 2.5 L 2.498185,2e-6 C 1.836217,0.001925 1.201911,0.265742 0.733827,0.733826 0.265743,1.201911 0.001925,1.836218 3e-6,2.498184 L 0,2.5 v 4.375 c 0,0.043267 0.004493,0.086417 0.013406,0.128757 l 1.248929,5.932412 c 0.119325,0.615069 0.392882,1.145107 0.84316,1.519185 z M 2.90427,13.493866 C 2.721158,13.341742 2.565322,13.092627 2.488754,12.69447 2.488065,12.69087 2.487344,12.68727 2.486594,12.68374 L 1.395279,7.5 H 6.25 C 6.595178,7.5 6.875,7.220178 6.875,6.875 6.875,6.377719 7.072544,5.900806 7.424174,5.549175 7.775805,5.197544 8.252719,5 8.75,5 9.24728,5 9.724194,5.197544 10.075825,5.549175 10.427455,5.900806 10.625,6.37772 10.625,6.875 c 0,0.345178 0.279822,0.625 0.625,0.625 h 4.854721 l -1.091314,5.183743 c -0.001,0.005 -0.002,0.01 -0.003,0.01495 -0.07586,0.409629 -0.237237,0.655423 -0.421314,0.803242 C 14.402032,13.652185 14.130454,13.75 13.75,13.75 h -10 c -0.394017,0 -0.662988,-0.104319 -0.84573,-0.256134 z M 16.25,6.25 H 11.811875 C 11.690228,5.654098 11.396197,5.10178 10.959709,4.665291 10.373657,4.07924 9.578802,3.75 8.75,3.75 7.921198,3.75 7.126342,4.07924 6.540291,4.665291 6.103802,5.10178 5.809772,5.654098 5.688125,6.25 H 1.25 V 2.500997 C 1.251178,2.169585 1.383351,1.85207 1.61771,1.61771 1.852087,1.383333 2.169632,1.251159 2.50107,1.25 h 12.49786 c 0.331437,0.00116 0.648982,0.133333 0.88336,0.36771 0.234377,0.234378 0.36655,0.551923 0.36771,0.88336 z m -12.5,5.625 c 0,0.345178 0.279822,0.625 0.625,0.625 h 8.75 c 0.345178,0 0.625,-0.279822 0.625,-0.625 0,-0.345178 -0.279822,-0.625 -0.625,-0.625 h -8.75 c -0.345178,0 -0.625,0.279822 -0.625,0.625 z M 3.125,9.375 C 3.125,9.720179 3.404822,10 3.75,10 h 10 c 0.345178,0 0.625,-0.279821 0.625,-0.625 0,-0.345179 -0.279822,-0.625 -0.625,-0.625 h -10 c -0.345178,0 -0.625,0.279821 -0.625,0.625 z" /></g></g></svg>