<svg width="40" height="41" viewBox="0 0 40 41" fill="none" xmlns="http://www.w3.org/2000/svg">
<g filter="url(#filter0_ii_1475_2916)">
<rect y="0.773804" width="40" height="40" rx="8" fill="#F2F4F6"/>
<path fill-rule="evenodd" clip-rule="evenodd" d="M18.7493 12.4404C14.8373 12.4404 11.666 15.6117 11.666 19.5238C11.666 23.4358 14.8373 26.6071 18.7493 26.6071C20.4051 26.6071 21.9282 26.039 23.1343 25.0871L26.1778 28.1307C26.5033 28.4561 27.0309 28.4561 27.3563 28.1307C27.6818 27.8053 27.6818 27.2776 27.3563 26.9522L24.3128 23.9086C25.2646 22.7025 25.8327 21.1794 25.8327 19.5238C25.8327 15.6117 22.6613 12.4404 18.7493 12.4404ZM13.3327 19.5238C13.3327 16.5322 15.7578 14.1071 18.7493 14.1071C21.7409 14.1071 24.166 16.5322 24.166 19.5238C24.166 22.5153 21.7409 24.9404 18.7493 24.9404C15.7578 24.9404 13.3327 22.5153 13.3327 19.5238Z" fill="#B5BDC9"/>
</g>
<defs>
<filter id="filter0_ii_1475_2916" x="0" y="0.773804" width="40" height="40" filterUnits="userSpaceOnUse" color-interpolation-filters="sRGB">
<feFlood flood-opacity="0" result="BackgroundImageFix"/>
<feBlend mode="normal" in="SourceGraphic" in2="BackgroundImageFix" result="shape"/>
<feColorMatrix in="SourceAlpha" type="matrix" values="0 0 0 0 0 0 0 0 0 0 0 0 0 0 0 0 0 0 127 0" result="hardAlpha"/>
<feOffset dy="1"/>
<feComposite in2="hardAlpha" operator="arithmetic" k2="-1" k3="1"/>
<feColorMatrix type="matrix" values="0 0 0 0 0 0 0 0 0 0 0 0 0 0 0 0 0 0 0.02 0"/>
<feBlend mode="normal" in2="shape" result="effect1_innerShadow_1475_2916"/>
<feColorMatrix in="SourceAlpha" type="matrix" values="0 0 0 0 0 0 0 0 0 0 0 0 0 0 0 0 0 0 127 0" result="hardAlpha"/>
<feOffset dy="-1"/>
<feComposite in2="hardAlpha" operator="arithmetic" k2="-1" k3="1"/>
<feColorMatrix type="matrix" values="0 0 0 0 1 0 0 0 0 1 0 0 0 0 1 0 0 0 0.2 0"/>
<feBlend mode="normal" in2="effect1_innerShadow_1475_2916" result="effect2_innerShadow_1475_2916"/>
</filter>
</defs>
</svg>
