<svg width="21" height="20" viewBox="0 0 21 20" fill="none" xmlns="http://www.w3.org/2000/svg">
<path fill-rule="evenodd" clip-rule="evenodd" d="M2.375 10C2.375 5.5142 6.0142 1.875 10.5 1.875C14.9858 1.875 18.625 5.5142 18.625 10C18.625 14.4858 14.9858 18.125 10.5 18.125C6.0142 18.125 2.375 14.4858 2.375 10ZM10.5 3.125C6.70455 3.125 3.625 6.20455 3.625 10C3.625 13.7954 6.70455 16.875 10.5 16.875C14.2954 16.875 17.375 13.7954 17.375 10C17.375 6.20455 14.2954 3.125 10.5 3.125Z" fill="#333333"/>
<path fill-rule="evenodd" clip-rule="evenodd" d="M15.2863 7.0294C15.5462 7.25655 15.5727 7.65139 15.3456 7.91129L10.9757 12.9113C10.8618 13.0416 10.6989 13.1189 10.5259 13.1247C10.3529 13.1304 10.1852 13.0642 10.0629 12.9417L8.18986 11.0667C7.94591 10.8225 7.94611 10.4268 8.19032 10.1828C8.43452 9.93888 8.83025 9.93908 9.0742 10.1833L10.4746 11.5851L14.4044 7.08871C14.6316 6.8288 15.0264 6.80225 15.2863 7.0294Z" fill="#333333"/>
<path fill-rule="evenodd" clip-rule="evenodd" d="M5.68329 10.1828C5.92749 9.93888 6.32322 9.93908 6.56717 10.1833L8.44022 12.0583C8.68417 12.3025 8.68396 12.6982 8.43976 12.9422C8.19555 13.1861 7.79983 13.1859 7.55588 12.9417L5.68283 11.0667C5.43888 10.8225 5.43908 10.4268 5.68329 10.1828Z" fill="#333333"/>
<path fill-rule="evenodd" clip-rule="evenodd" d="M12.853 7.02934C13.113 7.25646 13.1396 7.65129 12.9125 7.91123L10.8988 10.2159C10.6717 10.4759 10.2768 10.5025 10.0169 10.2753C9.75696 10.0482 9.73035 9.6534 9.95747 9.39346L11.9711 7.08877C12.1983 6.82884 12.5931 6.80223 12.853 7.02934Z" fill="#333333"/>
</svg>
