<svg width="20" height="20" viewBox="0 0 20 20" fill="none" xmlns="http://www.w3.org/2000/svg">
<path d="M10.114 1.87575C5.5445 1.81404 1.81404 5.54451 1.87575 10.114C1.93669 14.4965 5.50505 18.0648 9.88747 18.1258C14.4578 18.1883 18.1875 14.4578 18.125 9.88826C18.0648 5.50505 14.4965 1.93669 10.114 1.87575ZM15.0523 14.659C15.0368 14.6758 15.0177 14.689 14.9965 14.6976C14.9752 14.7063 14.9524 14.7101 14.9295 14.7089C14.9066 14.7077 14.8842 14.7015 14.864 14.6907C14.8438 14.6799 14.8262 14.6648 14.8125 14.6465C14.4631 14.1893 14.0352 13.798 13.5488 13.4906C12.5543 12.8523 11.2941 12.5008 10.0008 12.5008C8.7074 12.5008 7.44724 12.8523 6.45271 13.4906C5.96633 13.7978 5.53845 14.1891 5.18904 14.6461C5.17531 14.6644 5.15771 14.6795 5.13749 14.6903C5.11728 14.7011 5.09493 14.7073 5.07204 14.7085C5.04916 14.7097 5.02629 14.7059 5.00505 14.6972C4.98382 14.6886 4.96475 14.6754 4.94919 14.6586C3.80297 13.4212 3.15368 11.8044 3.12575 10.1179C3.06208 6.31677 6.18122 3.13513 9.98396 3.12576C13.7867 3.11638 16.8758 6.20427 16.8758 10.0008C16.8771 11.7279 16.2258 13.3917 15.0523 14.659Z" fill="#333333"/>
<path d="M10.0008 5.62576C9.23044 5.62576 8.53396 5.91443 8.03904 6.43904C7.54411 6.96365 7.29685 7.68904 7.35271 8.46755C7.46599 10.0008 8.65388 11.2508 10.0008 11.2508C11.3476 11.2508 12.5332 10.0008 12.6488 8.46794C12.7066 7.69685 12.4613 6.9781 11.9582 6.44372C11.4613 5.91638 10.766 5.62576 10.0008 5.62576Z" fill="#333333"/>
</svg>
