<svg width="20" height="20" viewBox="0 0 20 20" fill="none" xmlns="http://www.w3.org/2000/svg">
<path fill-rule="evenodd" clip-rule="evenodd" d="M5 1.25C5.34518 1.25 5.625 1.52982 5.625 1.875V2.5H14.375V1.875C14.375 1.52982 14.6548 1.25 15 1.25C15.3452 1.25 15.625 1.52982 15.625 1.875V2.5H16.25C17.6307 2.5 18.75 3.61929 18.75 5V16.25C18.75 17.6307 17.6307 18.75 16.25 18.75H3.75C2.36929 18.75 1.25 17.6307 1.25 16.25V5C1.25 3.61929 2.36929 2.5 3.75 2.5H4.375V1.875C4.375 1.52982 4.65482 1.25 5 1.25ZM3.75 3.75C3.05964 3.75 2.5 4.30964 2.5 5V5.625H17.5V5C17.5 4.30964 16.9404 3.75 16.25 3.75H3.75ZM17.5 6.875H2.5V16.25C2.5 16.9404 3.05964 17.5 3.75 17.5H16.25C16.9404 17.5 17.5 16.9404 17.5 16.25V6.875ZM5 9.375V11.875H7.5V9.375H5ZM3.75 9.25781C3.75 8.63218 4.25718 8.125 4.88281 8.125H7.61719C8.24282 8.125 8.75 8.63218 8.75 9.25781V11.9922C8.75 12.6178 8.24282 13.125 7.61719 13.125H4.88281C4.25718 13.125 3.75 12.6178 3.75 11.9922V9.25781Z" fill="#333333"/>
</svg>
