<svg width="20" height="20" viewBox="0 0 20 20" fill="none" xmlns="http://www.w3.org/2000/svg">
<path fill-rule="evenodd" clip-rule="evenodd" d="M7.5 2.2707C7.5 2.05216 7.67716 1.875 7.8957 1.875H12.1043C12.3228 1.875 12.5 2.05216 12.5 2.2707V2.7293C12.5 2.94784 12.3228 3.125 12.1043 3.125H7.8957C7.67716 3.125 7.5 2.94784 7.5 2.7293V2.2707ZM6.29788 3.125H5.625C5.29348 3.125 4.97554 3.2567 4.74112 3.49112C4.5067 3.72554 4.375 4.04348 4.375 4.375V16.875C4.375 17.2065 4.5067 17.5245 4.74112 17.7589C4.97554 17.9933 5.29348 18.125 5.625 18.125H14.375C14.7065 18.125 15.0245 17.9933 15.2589 17.7589C15.4933 17.5245 15.625 17.2065 15.625 16.875V4.375C15.625 4.04348 15.4933 3.72554 15.2589 3.49112C15.0245 3.2567 14.7065 3.125 14.375 3.125H13.7021C13.525 3.84277 12.8768 4.375 12.1043 4.375H7.8957C7.12322 4.375 6.47505 3.84277 6.29788 3.125ZM13.7021 1.875C13.525 1.15723 12.8768 0.625 12.1043 0.625H7.8957C7.12322 0.625 6.47505 1.15723 6.29788 1.875H5.625C4.96196 1.875 4.32607 2.13839 3.85723 2.60723C3.38839 3.07607 3.125 3.71196 3.125 4.375V16.875C3.125 17.538 3.38839 18.1739 3.85723 18.6428C4.32607 19.1116 4.96196 19.375 5.625 19.375H14.375C15.038 19.375 15.6739 19.1116 16.1428 18.6428C16.6116 18.1739 16.875 17.538 16.875 16.875V4.375C16.875 3.71196 16.6116 3.07607 16.1428 2.60723C15.6739 2.13839 15.038 1.875 14.375 1.875H13.7021Z" fill="#333333"/>
</svg>
