<svg width="20" height="20" viewBox="0 0 20 20" fill="none" xmlns="http://www.w3.org/2000/svg">
<path fill-rule="evenodd" clip-rule="evenodd" d="M10.1925 1.8753C14.591 1.97742 18.1255 5.57694 18.1255 10.0001C18.1255 14.4914 14.495 18.1336 9.99929 18.1251C5.49979 18.1166 1.82567 14.419 1.8755 9.91528C1.89584 7.94568 2.63148 6.05063 3.94538 4.58318C4.17563 4.32602 4.57076 4.3042 4.82792 4.53446C5.08508 4.76471 5.1069 5.15984 4.87664 5.417C3.76497 6.65858 3.14258 8.26195 3.12543 9.9284L3.12543 9.9289C3.08321 13.7336 6.19263 16.8679 10.0016 16.8751C13.8028 16.8822 16.8755 13.8033 16.8755 10.0001C16.8755 6.41344 14.1289 3.46686 10.6255 3.15109V5.93759C10.6255 6.28277 10.3456 6.56259 10.0005 6.56259C9.65529 6.56259 9.37546 6.28277 9.37546 5.93759V2.67141C9.37532 2.56501 9.39652 2.45967 9.43782 2.36161C9.47927 2.26321 9.5401 2.17415 9.61671 2.09976C9.69331 2.02537 9.7841 1.96717 9.88369 1.92862C9.98207 1.89054 10.087 1.87242 10.1925 1.8753Z" fill="#333333"/>
<path d="M9.11687 10.8841L6.03093 6.47001C5.98824 6.40885 5.96844 6.33462 5.97499 6.26032C5.98154 6.18603 6.01404 6.11641 6.06678 6.06367C6.11952 6.01093 6.18914 5.97843 6.26343 5.97188C6.33773 5.96533 6.41196 5.98513 6.47312 6.02782L10.8872 9.11376C11.1579 9.30876 11.341 9.6025 11.3969 9.93145C11.4527 10.2604 11.3768 10.5981 11.1856 10.8715C10.9943 11.1449 10.7032 11.3321 10.375 11.3925C10.0469 11.4529 9.70815 11.3817 9.43211 11.1942C9.31005 11.1096 9.20342 11.0047 9.11687 10.8841Z" fill="#333333"/>
</svg>
