<svg width="17" height="18" viewBox="0 0 17 18" fill="none" xmlns="http://www.w3.org/2000/svg">
<path fill-rule="evenodd" clip-rule="evenodd" d="M0.375 9C0.375 4.5142 4.0142 0.875 8.5 0.875C12.9858 0.875 16.625 4.5142 16.625 9C16.625 13.4858 12.9858 17.125 8.5 17.125C4.0142 17.125 0.375 13.4858 0.375 9ZM8.5 2.125C4.70455 2.125 1.625 5.20455 1.625 9C1.625 12.7954 4.70455 15.875 8.5 15.875C12.2954 15.875 15.375 12.7954 15.375 9C15.375 5.20455 12.2954 2.125 8.5 2.125Z" fill="#F0F5FC"/>
<path fill-rule="evenodd" clip-rule="evenodd" d="M13.2863 6.0294C13.5462 6.25655 13.5727 6.65139 13.3456 6.91129L8.97568 11.9113C8.86176 12.0416 8.6989 12.1189 8.52589 12.1247C8.35289 12.1304 8.18524 12.0642 8.06291 11.9417L6.18986 10.0667C5.94591 9.82251 5.94611 9.42678 6.19032 9.18283C6.43452 8.93888 6.83025 8.93908 7.0742 9.18329L8.47459 10.5851L12.4044 6.08871C12.6316 5.8288 13.0264 5.80225 13.2863 6.0294Z" fill="#F0F5FC"/>
<path fill-rule="evenodd" clip-rule="evenodd" d="M3.68329 9.18283C3.92749 8.93888 4.32322 8.93908 4.56717 9.18329L6.44022 11.0583C6.68417 11.3025 6.68396 11.6982 6.43976 11.9422C6.19555 12.1861 5.79983 12.1859 5.55588 11.9417L3.68283 10.0667C3.43888 9.82251 3.43908 9.42678 3.68329 9.18283Z" fill="#F0F5FC"/>
<path fill-rule="evenodd" clip-rule="evenodd" d="M10.853 6.02934C11.113 6.25646 11.1396 6.65129 10.9125 6.91123L8.89878 9.21591C8.67167 9.47585 8.27684 9.50246 8.0169 9.27534C7.75696 9.04823 7.73035 8.6534 7.95747 8.39346L9.97114 6.08877C10.1983 5.82884 10.5931 5.80223 10.853 6.02934Z" fill="#F0F5FC"/>
</svg>
