<svg width="14" height="18" viewBox="0 0 14 18" fill="none" xmlns="http://www.w3.org/2000/svg">
<path fill-rule="evenodd" clip-rule="evenodd" d="M2.625 1.27393C2.29348 1.27393 1.97554 1.40562 1.74112 1.64004C1.5067 1.87446 1.375 2.19241 1.375 2.52393V15.0239C1.375 15.3554 1.5067 15.6734 1.74112 15.9078C1.97554 16.1422 2.29348 16.2739 2.625 16.2739H11.375C11.7065 16.2739 12.0245 16.1422 12.2589 15.9078C12.4933 15.6734 12.625 15.3554 12.625 15.0239V7.52393H8.25C7.75272 7.52393 7.27581 7.32638 6.92418 6.97475C6.57254 6.62312 6.375 6.14621 6.375 5.64893V1.27393H2.625ZM7.625 2.15781L11.7411 6.27393H8.25C8.08424 6.27393 7.92527 6.20808 7.80806 6.09087C7.69085 5.97366 7.625 5.81469 7.625 5.64893V2.15781ZM0.857233 0.756159C1.32607 0.287318 1.96196 0.0239258 2.625 0.0239258H6.48252C6.97962 0.0240009 7.45636 0.22148 7.80791 0.572949L7.80796 0.573L13.326 6.09102C13.6774 6.44257 13.8749 6.9193 13.875 7.41641V15.0239C13.875 15.687 13.6116 16.3229 13.1428 16.7917C12.6739 17.2605 12.038 17.5239 11.375 17.5239H2.625C1.96196 17.5239 1.32607 17.2605 0.857233 16.7917C0.388392 16.3229 0.125 15.687 0.125 15.0239V2.52393C0.125 1.86088 0.388392 1.225 0.857233 0.756159ZM3.25 10.0239C3.25 9.67875 3.52982 9.39893 3.875 9.39893H10.125C10.4702 9.39893 10.75 9.67875 10.75 10.0239C10.75 10.3691 10.4702 10.6489 10.125 10.6489H3.875C3.52982 10.6489 3.25 10.3691 3.25 10.0239ZM3.25 13.1489C3.25 12.8037 3.52982 12.5239 3.875 12.5239H10.125C10.4702 12.5239 10.75 12.8037 10.75 13.1489C10.75 13.4941 10.4702 13.7739 10.125 13.7739H3.875C3.52982 13.7739 3.25 13.4941 3.25 13.1489Z" fill="#333333"/>
</svg>
